# xmcd
# 
# Track frame offsets:
#     150
#     46341
#     91817
#     139140
#     184730
#     232786
#     283589
# 
# Disc length: 4435
# 
# Revision: 1
# Processed by: cddbd v1.5.2PL0 Copyright (c) Steve Scherf et al.
# Submitted via: BonkEnc v1.0.8
# 
DISCID=55115107
DTITLE=Chris Mulzer - SDV - Vorwärts in ein neues Leben CD01
DYEAR=2004
DGENRE=NLP
TTITLE0=01
TTITLE1=02
TTITLE2=03
TTITLE3=04
TTITLE4=05
TTITLE5=06
TTITLE6=07
EXTD=
EXTT0=
EXTT1=
EXTT2=
EXTT3=
EXTT4=
EXTT5=
EXTT6=
PLAYORDER=
